<?xml version="1.0" encoding="UTF-8" standalone="no"?>
<!-- Created with Inkscape (http://www.inkscape.org/) -->

<svg
   xmlns:dc="http://purl.org/dc/elements/1.1/"
   xmlns:cc="http://creativecommons.org/ns#"
   xmlns:rdf="http://www.w3.org/1999/02/22-rdf-syntax-ns#"
   xmlns:svg="http://www.w3.org/2000/svg"
   xmlns="http://www.w3.org/2000/svg"
   xmlns:sodipodi="http://sodipodi.sourceforge.net/DTD/sodipodi-0.dtd"
   xmlns:inkscape="http://www.inkscape.org/namespaces/inkscape"
   width="8.5in"
   height="8.5in"
   viewBox="0 0 764.99999 764.99999"
   id="svg2"
   version="1.1"
   inkscape:version="0.91 r13725"
   sodipodi:docname="Duck.svg"
   inkscape:export-filename="/home/lj/Downloads/Theme/jekyllthemes-master/Duck.png"
   inkscape:export-xdpi="90"
   inkscape:export-ydpi="90">
  <defs
     id="defs4" />
  <sodipodi:namedview
     id="base"
     pagecolor="#ffffff"
     bordercolor="#666666"
     borderopacity="1.0"
     inkscape:pageopacity="0.0"
     inkscape:pageshadow="2"
     inkscape:zoom="0.57489712"
     inkscape:cx="90.586995"
     inkscape:cy="349.42134"
     inkscape:document-units="px"
     inkscape:current-layer="layer2"
     showgrid="false"
     units="in"
     inkscape:window-width="1440"
     inkscape:window-height="836"
     inkscape:window-x="0"
     inkscape:window-y="27"
     inkscape:window-maximized="1" />
  <metadata
     id="metadata7">
    <rdf:RDF>
      <cc:Work
         rdf:about="">
        <dc:format>image/svg+xml</dc:format>
        <dc:type
           rdf:resource="http://purl.org/dc/dcmitype/StillImage" />
        <dc:title />
      </cc:Work>
    </rdf:RDF>
  </metadata>
  <g
     inkscape:label="Layer 1"
     inkscape:groupmode="layer"
     id="layer1"
     transform="translate(0,-287.36224)"
     sodipodi:insensitive="true"
     style="display:inline">
    <path
       style="fill:none;fill-rule:evenodd;stroke:#000000;stroke-width:1px;stroke-linecap:butt;stroke-linejoin:miter;stroke-opacity:1"
       d="M 1.229971,1051.7472 763.61489,288.74735"
       id="path4219"
       inkscape:connector-curvature="0" />
    <path
       style="fill:none;fill-rule:evenodd;stroke:#000000;stroke-width:0.99920928px;stroke-linecap:butt;stroke-linejoin:miter;stroke-opacity:1"
       d="M 0.2107598,288.02658 763.61516,1048.8837"
       id="path4221"
       inkscape:connector-curvature="0" />
    <path
       style="fill:none;fill-rule:evenodd;stroke:#000000;stroke-width:1px;stroke-linecap:butt;stroke-linejoin:miter;stroke-opacity:1"
       d="M 309.95269,597.27297 614.9855,289.78022 0,289.78022 Z"
       id="path4229"
       inkscape:connector-curvature="0" />
    <path
       style="fill:none;fill-rule:evenodd;stroke:#000000;stroke-width:1px;stroke-linecap:butt;stroke-linejoin:miter;stroke-opacity:1"
       d="m 317.33252,735.02972 309.95269,314.87258 -629.745152,1.23 z"
       id="path4231"
       inkscape:connector-curvature="0" />
    <path
       style="fill:none;fill-rule:evenodd;stroke:#000000;stroke-width:1px;stroke-linecap:butt;stroke-linejoin:miter;stroke-opacity:1"
       d="m 434.17976,620.64242 330.8622,323.48237 0,-654.34457 z"
       id="path4233"
       inkscape:connector-curvature="0"
       sodipodi:nodetypes="cccc" />
    <path
       style="fill:none;fill-rule:evenodd;stroke:#000000;stroke-width:1px;stroke-linecap:butt;stroke-linejoin:miter;stroke-opacity:1"
       d="M -1.229971,361.11854 292.7331,664.92138 -1.229971,987.17378 Z"
       id="path4235"
       inkscape:connector-curvature="0" />
    <path
       style="fill:none;fill-rule:evenodd;stroke:#000000;stroke-width:1px;stroke-linecap:butt;stroke-linejoin:miter;stroke-opacity:1"
       d="M -3.689913,845.72711 234.92446,610.80265"
       id="path4237"
       inkscape:connector-curvature="0" />
    <path
       style="fill:none;fill-rule:evenodd;stroke:#000000;stroke-width:1px;stroke-linecap:butt;stroke-linejoin:miter;stroke-opacity:1"
       d="M 0,502.56521 206.63513,759.62914"
       id="path4239"
       inkscape:connector-curvature="0" />
    <path
       style="fill:none;fill-rule:evenodd;stroke:#000000;stroke-width:1px;stroke-linecap:butt;stroke-linejoin:miter;stroke-opacity:1"
       d="M 124.22707,496.41535 0,678.45106"
       id="path4241"
       inkscape:connector-curvature="0" />
    <path
       style="fill:#000080;stroke:#000000;stroke-width:6.14985514;stroke-miterlimit:4;stroke-dasharray:none;stroke-opacity:1"
       d="m 180.60821,438.27445 c -13.86792,-17.38034 -25.37925,-32.21918 -25.58072,-32.97522 -0.20148,-0.75603 18.02757,-19.42611 40.50899,-41.48907 22.48142,-22.06296 40.52054,-40.46923 40.08695,-40.90284 -0.4336,-0.43359 -19.07155,17.12953 -41.41767,39.02915 -22.34611,21.89961 -41.11646,39.81748 -41.71187,39.81748 -0.83055,0 -52.26771,-63.19634 -82.288647,-101.10086 l -3.842504,-4.85156 29.586187,-43.33622 c 16.272404,-23.83492 29.247444,-43.67497 28.833404,-44.089 -0.99459,-0.99459 1.89441,-5.02154 -30.196797,42.09121 -15.666931,23.00046 -28.953355,41.98407 -29.525385,42.18581 -0.57203,0.20174 -15.493715,-17.62921 -33.159298,-39.62435 L -0.21839471,213.03784 0.09953163,145.09227 2.5699072,77.454193 128.24783,209.31603 c 69.77271,73.20583 135.77641,140.23794 145.48822,150.09955 l 17.65784,17.93021 -41.96028,46.02828 c -23.07817,25.31556 -42.3317,46.13464 -42.78565,46.26464 -0.45393,0.12999 -12.17183,-13.98393 -26.03975,-31.36426 z"
       id="path4243"
       inkscape:connector-curvature="0"
       transform="translate(0,287.36224)"
       sodipodi:nodetypes="scscssscssssscccsscsss" />
    <path
       style="fill:#000080;stroke:#000000;stroke-width:6.14985514;stroke-miterlimit:4;stroke-dasharray:none;stroke-opacity:1"
       d="M 157.72516,156.06555 6.567313,3.3083056 308.36669,3.8908124 611.39603,3.8583338 566.9673,49.059768 C 542.5315,73.920557 474.74282,142.39919 416.32578,201.2345 L 310.113,308.20781 Z"
       id="path4245"
       inkscape:connector-curvature="0"
       transform="translate(0,287.36224)"
       sodipodi:nodetypes="ccccsscc" />
    <path
       style="fill:#005800;stroke:#000000;stroke-width:6.14985514;stroke-miterlimit:4;stroke-dasharray:none;stroke-opacity:1"
       d="m 160.67456,606.26168 156.5672,-156.64924 28.1456,28.34452 c 41.01428,41.30416 278.92967,282.92118 278.76512,283.10232 -0.0768,0.0846 -139.61844,0.5358 -310.09242,1.00271 L 4.107371,762.91092 160.67456,606.26168 Z"
       id="path4247"
       inkscape:connector-curvature="0"
       transform="translate(0,287.36224)" />
    <path
       style="fill:#005800;stroke:#000000;stroke-width:6.14985514;stroke-miterlimit:4;stroke-dasharray:none;stroke-opacity:1"
       d="m 137.51626,378.63834 c -34.07183,-41.31573 -66.462774,-82.50525 -65.944088,-83.85693 0.302717,-0.78886 10.312204,-15.75101 22.243306,-33.24921 11.931102,-17.49819 24.025282,-35.56419 26.875962,-40.14665 2.85069,-4.58247 5.47261,-8.35435 5.8265,-8.38195 0.73627,-0.0574 94.30562,96.1831 100.79219,103.66957 l 4.26793,4.92582 -12.50258,11.78815 c -6.87643,6.48348 -24.5907,23.50037 -39.36507,37.81533 l -26.86248,26.02717 -15.33167,-18.5913 z"
       id="path4249"
       inkscape:connector-curvature="0"
       transform="translate(0,287.36224)" />
    <path
       style="fill:#005800;stroke:#000000;stroke-width:6.14985514;stroke-miterlimit:4;stroke-dasharray:none;stroke-opacity:1"
       d="m -0.19752752,626.66217 0,-70.23751 75.90286652,-74.65434 75.902871,-74.65433 2.50778,3.45191 c 5.13706,7.07106 42.91469,54.06216 46.54595,57.89789 l 3.77098,3.98333 -2.51045,2.78152 C 187.61571,491.08222 5.9559166,690.48883 3.3215244,693.23342 l -3.51905192,3.66626 0,-70.23751 z"
       id="path4251"
       inkscape:connector-curvature="0"
       transform="translate(0,287.36224)" />
    <path
       style="fill:#003399;stroke:#000000;stroke-width:6.14985514;stroke-miterlimit:4;stroke-dasharray:none;stroke-opacity:1"
       d="m -0.19752752,304.79124 c 0,-46.45191 0.23149014,-84.45801 0.51442246,-84.45801 0.28293232,0 9.55383846,11.18657 20.60201506,24.85906 11.048175,13.67248 24.933779,30.6922 30.856896,37.8216 5.923118,7.12941 10.489052,13.70055 10.14652,14.60254 -0.486783,1.28186 -59.878609,89.02196 -61.67991614,91.12033 -0.2419655493,0.28186 -0.43993738,-37.49362 -0.43993738,-83.94552 z"
       id="path4253"
       inkscape:connector-curvature="0"
       transform="translate(0,287.36224)" />
    <path
       style="fill:#003399;stroke:#000000;stroke-width:6.14985514;stroke-miterlimit:4;stroke-dasharray:none;stroke-opacity:1"
       d="m -0.19752752,471.8199 c 0,-65.84391 0.28153852,-79.0855 1.69893862,-79.9061 1.8829465,-1.09012 11.0887809,-14.2684 41.9292089,-60.0222 11.399629,-16.9121 21.11543,-30.74928 21.590668,-30.74928 0.475238,0 11.28741,13.00695 24.027048,28.90432 12.739634,15.89738 31.356954,38.86494 41.371804,51.03902 10.01485,12.17409 18.20882,22.46995 18.20882,22.87969 0,0.62142 -121.864357,120.96787 -142.3691398,140.59583 l -6.45734772,6.18122 0,-78.9225 z"
       id="path4255"
       inkscape:connector-curvature="0"
       transform="translate(0,287.36224)" />
    <path
       style="fill:none;fill-rule:evenodd;stroke:#000000;stroke-width:1.00198185px;stroke-linecap:butt;stroke-linejoin:miter;stroke-opacity:1"
       d="M 1.2580107,364.22876 2.1244096,288.20747"
       id="path4257"
       inkscape:connector-curvature="0" />
    <path
       style="fill:#6666cc;fill-rule:evenodd;stroke:#000000;stroke-width:1px;stroke-linecap:butt;stroke-linejoin:miter;stroke-opacity:1"
       d="M 0.30749275,983.17637 3.0749275,1049.9023"
       id="path4259"
       inkscape:connector-curvature="0" />
    <path
       style="fill:#6666cc;stroke:#000000;stroke-width:6.14985514;stroke-miterlimit:4;stroke-dasharray:none;stroke-opacity:1"
       d="M 3.6033084,745.65308 C 3.2220957,740.71256 2.5719877,728.50025 2.1586239,718.51462 L 1.4070532,700.35891 14.840799,685.92039 c 7.38856,-7.9412 53.657263,-58.71749 102.819341,-112.83621 49.16207,-54.11872 97.8708,-107.53021 108.24161,-118.6922 39.75896,-42.79214 69.8583,-76.32064 69.4676,-77.3819 -0.22382,-0.60795 -27.28911,-28.6933 -60.14511,-62.41187 C 181.46176,259.42428 142.43147,218.79473 36.316458,107.54016 L 2.8816589,72.485986 2.862979,40.058448 2.8442989,7.6309091 19.7564,23.683381 c 9.301656,8.82886 78.348218,77.524599 153.4368,152.657199 75.08859,75.13261 137.08277,136.60474 137.76485,136.60474 0.68208,0 16.87272,15.63979 35.97918,34.75509 l 34.73906,34.75509 -31.67222,31.65465 c -17.41971,17.41004 -32.11012,31.63563 -32.64535,31.6124 -0.53522,-0.0232 -70.69386,69.30493 -155.9081,154.06257 C 76.236395,684.54276 6.0163328,754.05775 5.4060419,754.26288 4.7957511,754.46802 3.984521,750.59361 3.6033084,745.65308 Z"
       id="path4261"
       inkscape:connector-curvature="0"
       transform="translate(0,287.36224)" />
    <path
       style="fill:#6666cc;stroke:#000000;stroke-width:6.14985514;stroke-miterlimit:4;stroke-dasharray:none;stroke-opacity:1"
       d="M 599.67212,493.49181 435.76286,333.27451 599.67212,169.36176 763.58136,5.4490116 763.89338,167.90603 c 0.17162,89.35135 0.17162,235.20987 0,324.13005 L 763.58136,653.7091 599.67212,493.49181 Z"
       id="path4263"
       inkscape:connector-curvature="0"
       transform="translate(0,287.36224)" />
    <path
       style="fill:none;fill-rule:evenodd;stroke:#000000;stroke-width:1px;stroke-linecap:butt;stroke-linejoin:miter;stroke-opacity:1"
       d="M 760.12207,378.33813 538.7273,613.2626 765.04196,869.09656 Z"
       id="path4265"
       inkscape:connector-curvature="0" />
    <path
       style="fill:none;fill-rule:evenodd;stroke:#000000;stroke-width:1px;stroke-linecap:butt;stroke-linejoin:miter;stroke-opacity:1"
       d="M 590.38608,612.03262 769.96184,806.36804 763.81199,459.51622 Z"
       id="path4269"
       inkscape:connector-curvature="0" />
    <path
       style="fill:#009900;fill-rule:evenodd;stroke:#000000;stroke-width:1px;stroke-linecap:butt;stroke-linejoin:miter;stroke-opacity:1"
       d="m 659.26445,610.80265 103.31757,-98.39768 0,218.93484 z"
       id="path4271"
       inkscape:connector-curvature="0" />
    <path
       style="fill:#009900;stroke:#000000;stroke-width:6.14985514;stroke-miterlimit:4;stroke-dasharray:none;stroke-opacity:1"
       d="M 650.46715,450.8458 C 590.28379,382.69911 541.07163,326.47577 541.10681,325.90506 541.17497,324.799 758.35605,93.910052 758.85704,94.411036 c 0.16292,0.162922 0.38236,18.264284 0.48766,40.225244 l 0.19144,39.92902 -82.23041,72.30219 c -45.22672,39.7662 -83.54218,73.60979 -85.14548,75.20797 l -2.91508,2.90579 85.63063,92.65207 85.63063,92.65208 0,32.32187 c 0,17.77703 -0.13837,32.2813 -0.30749,32.23173 -0.16912,-0.0496 -49.54842,-55.84651 -109.73179,-123.9932 z"
       id="path4273"
       inkscape:connector-curvature="0"
       transform="translate(0,287.36224)" />
    <path
       style="fill:#009900;stroke:#000000;stroke-width:6.14985514;stroke-miterlimit:4;stroke-dasharray:none;stroke-opacity:1"
       d="m 711.30759,382.90587 c -27.3976,-31.94496 -49.96993,-58.45534 -50.16072,-58.91197 -0.19079,-0.45663 22.22543,-22.34001 49.81383,-48.62972 l 50.16072,-47.79949 0.32049,53.8525 c 0.17627,29.61888 0.17627,77.63902 0,106.71146 l -0.32049,52.85895 -49.81383,-58.08173 z"
       id="path4275"
       inkscape:connector-curvature="0"
       transform="translate(0,287.36224)" />
    <path
       style="fill:#003399;fill-rule:evenodd;stroke:#000000;stroke-width:1px;stroke-linecap:butt;stroke-linejoin:miter;stroke-opacity:1"
       d="m 620.52037,1048.6723 142.98413,0"
       id="path4277"
       inkscape:connector-curvature="0" />
    <path
       style="fill:#003399;stroke:#000000;stroke-width:4.3486042;stroke-miterlimit:4;stroke-dasharray:none;stroke-opacity:1"
       d="m 622.50695,756.17753 c -1.91339,-2.16969 -3.47888,-4.28427 -3.47888,-4.69907 0,-0.80658 -27.86048,-29.24163 -163.05117,-166.41383 -47.12894,-47.81971 -96.84316,-98.307 -110.47603,-112.19398 l -24.78705,-25.24904 31.74481,-31.47714 31.74481,-31.47713 188.29456,187.76816 188.29456,187.76816 -67.40336,-0.0406 -67.40337,-0.0406 -3.47888,-3.94487 0,-3e-5 z"
       id="path4279"
       inkscape:connector-curvature="0"
       transform="translate(0,287.36224)" />
    <path
       style="fill:none;fill-rule:evenodd;stroke:#000000;stroke-width:1px;stroke-linecap:butt;stroke-linejoin:miter;stroke-opacity:1"
       d="m 608.80458,289.61707 153.94059,0"
       id="path4283"
       inkscape:connector-curvature="0" />
    <path
       style="fill:#009900;stroke:#000000;stroke-width:4.3486042;stroke-miterlimit:4;stroke-dasharray:none;stroke-opacity:1"
       d="M 348.55379,344.42546 313.44458,309.69596 417.73937,204.66107 C 475.1015,146.89187 543.34482,78.003241 569.39117,51.575228 L 616.74819,3.524295 688.4994,3.5231517 760.25061,3.5220083 572.39242,191.38171 c -103.32201,103.32283 -188.05421,187.84025 -188.2938,187.81647 -0.23959,-0.0238 -16.23476,-15.67149 -35.54483,-34.77272 z"
       id="path4285"
       inkscape:connector-curvature="0"
       transform="translate(0,287.36224)" />
    <path
       style="fill:#ca4436;fill-rule:evenodd;stroke:#000000;stroke-width:1px;stroke-linecap:butt;stroke-linejoin:miter;stroke-opacity:1"
       d="m 760.13601,936.68937 -1.73945,110.45453"
       id="path4287"
       inkscape:connector-curvature="0" />
    <path
       style="fill:#ca4436;stroke:#000000;stroke-width:4.3486042;stroke-miterlimit:4;stroke-dasharray:none;stroke-opacity:1"
       d="M 572.06156,568.24628 C 470.54792,466.96515 387.12112,383.40706 386.66867,382.56164 c -0.68692,-1.28352 3.01499,-5.34026 22.43803,-24.58867 l 23.26067,-23.05155 12.17609,11.92867 c 6.69685,6.56077 80.207,78.41005 163.35588,159.66507 l 151.1798,147.7364 -0.61029,47.91941 c -0.33566,26.35567 -0.88631,48.43767 -1.22366,49.07111 -0.41558,0.78033 -60.1304,-58.229 -185.18363,-182.9958 z"
       id="path4289"
       inkscape:connector-curvature="0"
       transform="translate(0,287.36224)" />
  </g>
  <g
     inkscape:groupmode="layer"
     id="layer2"
     inkscape:label="Layer 2"
     style="display:inline">
    <path
       style="fill:#ffcc00;fill-rule:evenodd;stroke:#000000;stroke-width:6.3796649;stroke-linecap:butt;stroke-linejoin:miter;stroke-miterlimit:4;stroke-dasharray:none;stroke-opacity:1"
       d="m 168.43276,283.85759 c 0,0 -1.05481,-78.21939 81.22068,-78.21939 82.27547,0 69.6177,135.42462 69.6177,135.42462 0,0 -8.4385,82.88922 8.43852,84.05667 16.87701,1.16745 227.83978,32.68871 263.70345,-7.00471 35.86367,-39.69343 24.26072,103.90337 24.26072,103.90337 0,0 11.60295,100.40102 -253.15532,107.40575 C 97.760249,636.42861 167.37795,338.72792 167.37795,338.72792 Z"
       id="path3342"
       inkscape:connector-curvature="0" />
    <path
       style="fill:#ff6600"
       d="m 137.00498,374.20869 c -19.98925,1.29372 -34.85395,-0.60588 -42.728238,-5.4603 -4.292603,-2.64633 -6.841572,-6.10642 -7.455913,-10.12097 l -0.340632,-2.22583 2.701105,-0.50889 c 1.485606,-0.27986 21.744018,-3.49504 45.018678,-7.14479 23.27466,-3.64974 43.51873,-6.86222 44.98679,-7.13889 2.64943,-0.49927 2.66866,-0.5085 2.59512,-1.2457 l -0.0744,-0.74267 -5.68118,0.89426 c -6.36995,1.00267 -26.02445,4.1116 -62.22722,9.84306 -30.197921,4.78081 -27.254421,4.41172 -27.129598,3.40182 0.394687,-3.19345 3.280663,-7.95013 6.684524,-11.01751 12.039344,-10.8492 36.610534,-19.23047 75.227744,-25.66029 l 4.04504,-0.6735 2.1167,1.27214 c 2.80675,1.68687 8.46508,6.76767 10.32812,9.27395 3.17767,4.27481 4.75771,8.186 5.20542,12.88535 0.36064,3.78553 0.0121,6.67735 -1.27355,10.56639 -1.64941,4.98937 -5.29498,10.96242 -9.77865,16.02166 l -1.72052,1.9414 -4.01111,0.8122 c -10.78525,2.18392 -26.93401,4.40882 -36.48854,5.02717 z"
       id="path3352"
       inkscape:connector-curvature="0" />
    <ellipse
       style="fill:#ff6600"
       id="path3354"
       cx="278.74554"
       cy="86.291603"
       rx="78.70974"
       ry="43.377327" />
    <ellipse
       style="fill:#e6e6e6;stroke:#000000;stroke-width:6.38486385;stroke-miterlimit:4;stroke-dasharray:none;stroke-opacity:1"
       id="path3360"
       cx="125.26989"
       cy="325.46997"
       rx="17.439754"
       ry="33.151978"
       transform="matrix(0.94663071,-0.32232018,0.26780507,0.96347312,0,0)" />
    <ellipse
       style="fill:#e6e6e6;stroke:#000000;stroke-width:6.3796649;stroke-miterlimit:4;stroke-dasharray:none;stroke-opacity:1"
       id="path3360-3"
       cx="284.46231"
       cy="243.58046"
       rx="17.272575"
       ry="33.418365" />
    <rect
       style="fill:#ba00ff;stroke:#000000;stroke-width:5;stroke-miterlimit:4;stroke-dasharray:none;stroke-opacity:1"
       id="rect4291"
       width="200.0358"
       height="50.44381"
       x="257.43738"
       y="91.836075" />
    <path
       style="fill:none;fill-rule:evenodd;stroke:#000000;stroke-width:5;stroke-linecap:butt;stroke-linejoin:miter;stroke-miterlimit:4;stroke-dasharray:none;stroke-opacity:1"
       d="m 339.76324,497.17954 c 0,0 34.4691,-96.91544 209.36378,13.6782 0,0 -114.47639,105.14291 -193.55099,52.19955"
       id="path4314"
       inkscape:connector-curvature="0" />
    <path
       style="fill:none;fill-rule:evenodd;stroke:#000000;stroke-width:5;stroke-linecap:butt;stroke-linejoin:miter;stroke-opacity:1;stroke-miterlimit:4;stroke-dasharray:none"
       d="M 389.63493,514.5204 542.7058,507.56263"
       id="path4316"
       inkscape:connector-curvature="0" />
  </g>
</svg>
